<?xml version="1.0" encoding="utf-8"?>
<!-- Generator: Adobe Illustrator 24.1.0, SVG Export Plug-In . SVG Version: 6.00 Build 0)  -->
<svg version="1.1" id="Layer_1" xmlns="http://www.w3.org/2000/svg" xmlns:xlink="http://www.w3.org/1999/xlink" x="0px" y="0px"
	 viewBox="0 0 145 113" style="enable-background:new 0 0 145 113;" xml:space="preserve">
<style type="text/css">
	.st0{fill:none;}
</style>
<desc>Created with Sketch.</desc>
<g>
	<path class="st0" d="M87.5,53.7c-3,2.2-6.3,4-9.9,5.2c-3.8,1.3-7.8,2-12.1,2c-2.6,0-5.3-0.3-7.8-0.8c-3.6-0.8-7.1-2.1-10.3-3.9
		l6.9-26.8l5.7-22.3c1.2-0.7,2.4-1.2,3.8-1.6c1.4-0.5,2.9-0.7,4.5-0.7c1.1,0,2.3,0.1,3.4,0.4c1.3,0.2,2.4,0.6,3.6,1.1l6.2,24.2
		L87.5,53.7z"/>
	<path class="st0" d="M87.5,53.7c-3,2.2-6.3,4-9.9,5.2c-3.8,1.3-7.8,2-12.1,2c-2.6,0-5.3-0.3-7.8-0.8c-3.6-0.8-7.1-2.1-10.3-3.9
		l6.9-26.8l5.7-22.3c1.2-0.7,2.4-1.2,3.8-1.6c1.4-0.5,2.9-0.7,4.5-0.7c1.1,0,2.3,0.1,3.4,0.4c1.3,0.2,2.4,0.6,3.6,1.1l6.2,24.2
		L87.5,53.7z"/>
	<circle class="st0" cx="68.4" cy="21.1" r="4.9"/>
	<path class="st0" d="M87.5,53.7c-3,2.2-6.3,4-9.9,5.2l-5.9-21.6v-0.4c-1.1,0.3-2.2,0.4-3.4,0.4c-1.6,0-3-0.2-4.5-0.7
		c-4-1.1-7.4-3.7-9.5-7.2l5.7-22.3c1.2-0.7,2.4-1.2,3.8-1.6c1.4-0.5,2.9-0.7,4.5-0.7c1.1,0,2.3,0.1,3.4,0.4c1.3,0.2,2.4,0.6,3.6,1.1
		l6.2,24.2L87.5,53.7z"/>
	<path class="st0" d="M97.5,92.5L97.5,92.5c-4.1,4-6.5,9.6-6.5,15.7L79.5,65.7c3.5-1.1,6.9-2.7,9.9-4.7L97.5,92.5z"/>
	<path class="st0" d="M45.7,63.3c3.2,1.6,6.6,2.9,10.2,3.6l-11.1,41.2c0-6.1-2.5-11.7-6.5-15.6v-0.1L45.7,63.3z"/>
	<path class="st0" d="M63.9,36.7v0.7l-6.1,22.8c-3.6-0.8-7.1-2.1-10.3-3.9l6.9-26.8C56.5,32.9,59.9,35.6,63.9,36.7z"/>
	<path class="st0" d="M106.8,40.1c-0.5,1.3-1.1,2.5-1.7,3.6c0,0-0.1,0-0.1,0.1c-3.6,7.1-9,13.1-15.7,17.3c-3,2-6.4,3.6-9.9,4.7
		c-4.4,1.5-9,2.3-13.9,2.3c-3.3,0-6.5-0.3-9.7-1.1c-3.6-0.7-7-2-10.2-3.6l1.8-7.1c3.2,1.8,6.6,3.1,10.3,3.9c2.5,0.5,5.1,0.8,7.8,0.8
		c4.3,0,8.3-0.7,12.1-2c3.6-1.2,6.9-3,9.9-5.2c4.8-3.4,8.7-8,11.3-13.3c0.6-1,1-2,1.4-3c0.7-0.7,1.6-1,2.6-1
		C104.9,36.4,106.6,38,106.8,40.1z"/>
</g>
</svg>
