<?xml version="1.0" encoding="utf-8"?>
<!-- Generator: Adobe Illustrator 24.1.0, SVG Export Plug-In . SVG Version: 6.00 Build 0)  -->
<svg version="1.1" id="Layer_1" xmlns="http://www.w3.org/2000/svg" xmlns:xlink="http://www.w3.org/1999/xlink" x="0px" y="0px"
	 viewBox="0 0 150 130" style="enable-background:new 0 0 150 130;" xml:space="preserve">
<style type="text/css">
	.st0{fill:none;}
</style>
<desc>Created with Sketch.</desc>
<g>
	<circle class="st0" cx="82.3" cy="41" r="23.6"/>
	<circle class="st0" cx="82.3" cy="76.8" r="5.8"/>
	<path class="st0" d="M121.6,41c0,10.3-4,19.8-10.7,26.9L82.2,96.7L54.5,68.9C47.4,61.7,43,51.9,43,41s4.4-20.7,11.5-27.9
		C61.5,6.1,71.4,1.7,82.2,1.7c10.6,0,20.1,4.1,27.2,10.9l1.6,1.6C117.6,21.2,121.6,30.7,121.6,41z"/>
	
		<rect x="29.8" y="90.6" transform="matrix(0.7071 -0.7071 0.7071 0.7071 -56.7762 68.2845)" class="st0" width="48.4" height="24.2"/>
	<line class="st0" x1="36.9" y1="103.3" x2="44.9" y2="111.3"/>
	<line class="st0" x1="40.5" y1="99.7" x2="45.2" y2="104.4"/>
	<line class="st0" x1="33.3" y1="106.9" x2="38" y2="111.6"/>
	<line class="st0" x1="44.1" y1="96.1" x2="52.1" y2="104"/>
	<line class="st0" x1="47.7" y1="92.5" x2="52.4" y2="97.1"/>
	<line class="st0" x1="51.4" y1="88.8" x2="59.3" y2="96.8"/>
	<line class="st0" x1="55" y1="85.2" x2="62.9" y2="93.2"/>
	<line class="st0" x1="58.6" y1="81.6" x2="66.6" y2="89.6"/>
</g>
</svg>
