<?xml version="1.0" encoding="utf-8"?>
<!-- Generator: Adobe Illustrator 24.1.0, SVG Export Plug-In . SVG Version: 6.00 Build 0)  -->
<svg version="1.1" id="Layer_1" xmlns="http://www.w3.org/2000/svg" xmlns:xlink="http://www.w3.org/1999/xlink" x="0px" y="0px"
	 viewBox="0 0 148 148" style="enable-background:new 0 0 148 148;" xml:space="preserve">
<style type="text/css">
	.st0{fill:none;}
</style>
<desc>Created with Sketch.</desc>
<g>
	<rect x="4.1" y="53.3" class="st0" width="12.3" height="41.4"/>
	<polygon class="st0" points="143.9,53.3 143.9,94.7 16.5,94.7 16.5,53.3 95.4,53.3 95.4,59.8 122.5,59.8 122.5,53.3 	"/>
	<rect x="95.4" y="67.4" class="st0" width="27.1" height="6.6"/>
	<rect x="95.4" y="60.9" class="st0" width="27.1" height="6.6"/>
	<path class="st0" d="M52.3,61.3v25.4c-1,0.3-2.2,0.4-3.3,0.4c-1.1,0-2.2-0.2-3.3-0.4V61.3c1-0.3,2.2-0.4,3.3-0.4
		C50.1,60.9,51.3,61,52.3,61.3z"/>
	<path class="st0" d="M62.2,74c0,6.1-4.2,11.2-9.9,12.7c-1,0.3-2.2,0.4-3.3,0.4c-1.1,0-2.2-0.2-3.3-0.4c-5.7-1.5-9.8-6.5-9.8-12.7
		c0-6.2,4.1-11.3,9.8-12.7c1-0.3,2.2-0.4,3.3-0.4c1.1,0,2.2,0.2,3.3,0.4C58,62.8,62.2,67.8,62.2,74z"/>
</g>
</svg>
