<?xml version="1.0" encoding="utf-8"?>
<!-- Generator: Adobe Illustrator 24.1.0, SVG Export Plug-In . SVG Version: 6.00 Build 0)  -->
<svg version="1.1" id="Layer_1" xmlns="http://www.w3.org/2000/svg" xmlns:xlink="http://www.w3.org/1999/xlink" x="0px" y="0px"
	 viewBox="0 0 149 110" style="enable-background:new 0 0 149 110;" xml:space="preserve">
<style type="text/css">
	.st0{fill:none;}
</style>
<desc>Created with Sketch.</desc>
<g>
	<path class="st0" d="M59.5,9.3H33.6c-16.1,0-29.1,13-29.1,29.1v13"/>
	<path class="st0" d="M32.6,9.4c8.4,0,15.2,6.8,15.2,15.2H17.3c0,3.1,1,6.1,2.6,8.6c0.5,0.9,1.2,1.6,1.9,2.3c1.4,1.4,3,2.6,4.8,3.2
		c1.8,0.9,3.9,1.3,6,1.3h97.6c1.8,0,3.5-0.3,5.3-1.1v61.8H4.4V38.2"/>
	<path class="st0" d="M144.6,24.7c0,4.2-1.7,8.1-4.5,10.9c-2.8,2.8-6.6,4.5-10.9,4.5H32.7c4.3,0,8.1-1.7,10.9-4.5
		c2.8-2.8,4.5-6.6,4.5-10.9c0-8.5-6.9-15.4-15.4-15.4h96.4C137.7,9.3,144.6,16.2,144.6,24.7z"/>
</g>
</svg>
