<?xml version="1.0" encoding="utf-8"?>
<!-- Generator: Adobe Illustrator 24.1.0, SVG Export Plug-In . SVG Version: 6.00 Build 0)  -->
<svg version="1.1" id="Layer_1" xmlns="http://www.w3.org/2000/svg" xmlns:xlink="http://www.w3.org/1999/xlink" x="0px" y="0px"
	 viewBox="0 0 131 149" style="enable-background:new 0 0 131 149;" xml:space="preserve">
<style type="text/css">
	.st0{fill:none;}
</style>
<desc>Created with Sketch.</desc>
<g>
	<polygon class="st0" points="37.6,4.6 27.5,12.9 27.5,20.2 37.6,20.2 	"/>
	<polygon class="st0" points="47.1,40.1 18.1,40.1 24.6,20.2 40.5,20.2 	"/>
	<path class="st0" d="M35.1,144.1h-5c-6.6,0-12-5.4-12-12v-92h29v92C47.1,138.7,41.7,144.1,35.1,144.1z"/>
	<rect x="26.9" y="83.7" class="st0" width="11.3" height="35.4"/>
	<line class="st0" x1="18.1" y1="100.4" x2="26.9" y2="100.4"/>
	<line class="st0" x1="38.2" y1="100.4" x2="47.1" y2="100.4"/>
	<polygon class="st0" points="100.4,5.3 87.8,12.2 87.8,18.3 100.4,18.3 	"/>
	<path class="st0" d="M113,39.9v92.2c0,6.7-5.3,12-12,12H87.1c-6.6,0-12-5.3-12-12V39.9c0-5.7,4-10.5,9.4-11.6
		c0.9-0.3,1.7-0.3,2.6-0.3H101c0.9,0,1.8,0.1,2.6,0.3C109,29.3,113,34.1,113,39.9z"/>
	<path class="st0" d="M103.6,18.3v9.9c-0.8-0.3-1.7-0.3-2.6-0.3H87.1c-0.9,0-1.7,0.1-2.6,0.3v-9.9H103.6z"/>
	<line class="st0" x1="75.2" y1="39.9" x2="113" y2="39.9"/>
</g>
</svg>
