<?xml version="1.0" encoding="utf-8"?>
<!-- Generator: Adobe Illustrator 24.1.0, SVG Export Plug-In . SVG Version: 6.00 Build 0)  -->
<svg version="1.1" id="Layer_1" xmlns="http://www.w3.org/2000/svg" xmlns:xlink="http://www.w3.org/1999/xlink" x="0px" y="0px"
	 viewBox="0 0 141 149" style="enable-background:new 0 0 141 149;" xml:space="preserve">
<style type="text/css">
	.st0{fill:none;}
</style>
<desc>Created with Sketch.</desc>
<g>
	<polygon class="st0" points="54.8,4 54.8,116.1 24.1,145 24.1,4 	"/>
	<polygon class="st0" points="116.9,116.1 116.9,145 24.1,145 54.8,116.1 	"/>
	<line class="st0" x1="24.7" y1="31" x2="39" y2="31"/>
	<line class="st0" x1="24.7" y1="37.5" x2="33.1" y2="37.5"/>
	<line class="st0" x1="24.7" y1="24.5" x2="33.1" y2="24.5"/>
	<line class="st0" x1="24.7" y1="44" x2="39" y2="44"/>
	<line class="st0" x1="24.7" y1="50.5" x2="33.1" y2="50.5"/>
	<line class="st0" x1="24.7" y1="57" x2="39" y2="57"/>
	<line class="st0" x1="24.7" y1="63.5" x2="33.1" y2="63.5"/>
	<line class="st0" x1="24.7" y1="70" x2="39" y2="70"/>
	<line class="st0" x1="24.7" y1="76.5" x2="33.1" y2="76.5"/>
	<line class="st0" x1="24.7" y1="83" x2="39" y2="83"/>
	<line class="st0" x1="24.7" y1="89.5" x2="33.1" y2="89.5"/>
	<line class="st0" x1="24.7" y1="96" x2="39" y2="96"/>
	<line class="st0" x1="24.7" y1="102.5" x2="33.1" y2="102.5"/>
	<line class="st0" x1="24.7" y1="109" x2="39" y2="109"/>
	<line class="st0" x1="24.7" y1="115.4" x2="33.1" y2="115.4"/>
	<line class="st0" x1="24.7" y1="121.9" x2="39" y2="121.9"/>
	<circle class="st0" cx="39.7" cy="13.7" r="3.8"/>
</g>
</svg>
