<?xml version="1.0" encoding="utf-8"?>
<!-- Generator: Adobe Illustrator 24.1.0, SVG Export Plug-In . SVG Version: 6.00 Build 0)  -->
<svg version="1.1" id="Layer_1" xmlns="http://www.w3.org/2000/svg" xmlns:xlink="http://www.w3.org/1999/xlink" x="0px" y="0px"
	 viewBox="0 0 1506.3 578.7" style="enable-background:new 0 0 1506.3 578.7;" xml:space="preserve">
<style type="text/css">
	.st0{fill:#40C2EB;}
	.st1{fill:#F89D27;}
	.st2{fill:#79C49E;}
</style>
<path class="st0" d="M147.3,295.6c0.6-1.7,2.1-2.9,3.9-3.1l16.5-2.6c1.8-0.3,3.5,0.4,4.7,1.8l10.5,13c1.1,1.4,1.4,3.3,0.8,4.9
	l-6,15.6c-0.6,1.7-2.1,2.9-3.9,3.1l-16.5,2.6c-1.8,0.3-3.5-0.4-4.7-1.8l-10.5-13c-1.1-1.4-1.4-3.3-0.8-4.9L147.3,295.6z"/>
<path class="st1" d="M92.9,474.9c0.4-1,1.3-1.7,2.3-1.9l9.8-1.5c1-0.2,2.1,0.2,2.8,1.1l6.2,7.7c0.7,0.8,0.8,1.9,0.5,2.9l-3.6,9.2
	c-0.4,1-1.3,1.7-2.3,1.9l-9.8,1.5c-1,0.2-2.1-0.2-2.8-1.1l-6.2-7.7c-0.7-0.8-0.8-1.9-0.5-2.9L92.9,474.9z"/>
<path class="st2" d="M34.2,36.9c0.6-1.7,2.1-2.9,3.9-3.1l16.5-2.6c1.8-0.3,3.5,0.4,4.7,1.8l10.5,13c1.1,1.4,1.4,3.3,0.8,4.9l-6,15.6
	c-0.6,1.7-2.1,2.9-3.9,3.1l-16.5,2.6c-1.8,0.3-3.5-0.4-4.7-1.8L29,57.4c-1.1-1.4-1.4-3.3-0.8-4.9L34.2,36.9z"/>
<path class="st2" d="M975.6,9.8c0.5-1.2,1.5-2.1,2.8-2.3l11.9-1.8c1.3-0.2,2.6,0.3,3.4,1.3l7.6,9.4c0.8,1,1,2.4,0.6,3.6l-4.4,11.2
	c-0.5,1.2-1.5,2.1-2.8,2.3l-11.9,1.9c-1.3,0.2-2.6-0.3-3.4-1.3l-7.6-9.4c-0.8-1-1-2.4-0.6-3.6L975.6,9.8z"/>
<path class="st0" d="M1417.8,409.9c0.6-1.7,2.1-2.9,3.9-3.1l16.5-2.6c1.8-0.3,3.5,0.4,4.7,1.8l10.5,13c1.1,1.4,1.4,3.3,0.8,4.9
	l-6,15.6c-0.6,1.7-2.1,2.9-3.9,3.1l-16.5,2.6c-1.8,0.3-3.5-0.4-4.7-1.8l-10.5-13c-1.1-1.4-1.4-3.3-0.8-4.9L1417.8,409.9z"/>
<path class="st1" d="M1313.9,202.8c0.4-0.9,1.2-1.6,2.2-1.8l9.3-1.4c1-0.2,2,0.2,2.6,1l5.9,7.3c0.6,0.8,0.8,1.8,0.4,2.8l-3.4,8.8
	c-0.4,0.9-1.2,1.6-2.2,1.8l-9.3,1.4c-1,0.2-2-0.2-2.6-1l-5.9-7.3c-0.6-0.8-0.8-1.8-0.4-2.8L1313.9,202.8z"/>
<path class="st2" d="M1084.4,506.1c0.5-1.3,1.7-2.3,3.1-2.5l13.2-2c1.4-0.2,2.8,0.3,3.7,1.4l8.3,10.4c0.9,1.1,1.1,2.6,0.6,3.9
	l-4.8,12.4c-0.5,1.3-1.7,2.3-3.1,2.5l-13.2,2c-1.4,0.2-2.8-0.3-3.7-1.4l-8.3-10.4c-0.9-1.1-1.1-2.6-0.6-3.9L1084.4,506.1z"/>
</svg>
